<?xml version="1.0" standalone="no"?>
<!DOCTYPE svg PUBLIC "-//W3C//DTD SVG 20010904//EN"
 "http://www.w3.org/TR/2001/REC-SVG-20010904/DTD/svg10.dtd">
<svg version="1.0" xmlns="http://www.w3.org/2000/svg"
 width="251.000000pt" height="201.000000pt" viewBox="0 0 251.000000 201.000000"
 preserveAspectRatio="xMidYMid meet">

<g transform="translate(0.000000,201.000000) scale(0.100000,-0.100000)"
fill="#000000" stroke="none">
<path d="M1423 1466 c-59 -15 -146 -55 -186 -88 l-28 -23 53 1 c30 0 64 7 78
16 75 48 225 61 320 28 30 -10 59 -16 64 -13 5 3 6 2 3 -4 -4 -6 5 -15 19 -22
23 -10 26 -9 31 9 7 25 14 25 42 -1 12 -12 24 -19 27 -16 10 9 -78 66 -94 60
-9 -4 -13 -2 -9 4 8 13 -30 30 -107 48 -73 18 -143 18 -213 1z m342 -96 c3 -6
-1 -7 -9 -4 -18 7 -21 14 -7 14 6 0 13 -4 16 -10z"/>
<path d="M687 1392 c-53 -58 28 -137 83 -82 18 18 33 20 138 20 116 0 119 0
132 -25 l13 -25 157 0 c119 0 164 4 187 15 16 8 54 20 84 25 135 26 277 -48
341 -178 33 -68 33 -206 0 -274 -80 -163 -277 -230 -434 -148 -34 18 -58 20
-197 20 -155 0 -158 0 -181 -25 -23 -24 -28 -25 -145 -25 -109 0 -124 2 -140
20 -36 39 -105 14 -105 -38 0 -34 37 -65 68 -57 15 3 32 13 38 21 9 11 41 14
151 14 139 0 141 0 157 25 16 25 19 25 150 25 125 0 137 -2 192 -27 52 -25 71
-28 159 -28 91 0 105 3 158 29 71 36 140 108 175 184 23 49 27 70 27 147 0 77
-4 98 -27 147 -35 76 -104 148 -175 183 -80 40 -192 46 -280 16 -52 -17 -86
-21 -200 -21 -127 0 -139 2 -151 20 -11 18 -23 20 -142 20 -117 0 -132 2 -150
20 -25 25 -62 26 -83 2z m61 -39 c5 -17 -26 -29 -40 -15 -6 6 -7 15 -3 22 9
14 37 9 43 -7z m-53 -679 c0 -10 -8 -20 -17 -22 -18 -3 -26 27 -11 42 12 11
28 0 28 -20z"/>
<path d="M1786 1352 c-3 -5 11 -24 32 -43 l37 -34 -33 36 c-18 19 -29 38 -26
42 4 4 5 7 1 7 -3 0 -8 -4 -11 -8z"/>
<path d="M1438 1263 c-193 -64 -243 -333 -87 -466 43 -38 122 -67 178 -67 53
0 139 27 150 48 5 9 13 17 18 17 4 0 7 3 5 8 -1 4 4 6 10 5 7 -2 12 3 10 10
-1 8 2 11 7 8 5 -4 18 6 29 21 24 35 34 63 23 63 -5 0 -11 -9 -14 -19 -4 -15
-10 -18 -28 -13 -24 7 -24 7 -2 10 28 4 36 29 37 112 2 84 -9 120 -37 121 -21
0 -21 1 -2 8 19 8 19 8 0 19 -19 11 -19 11 -2 12 12 0 23 -11 30 -30 6 -16 15
-30 19 -30 10 0 -1 29 -24 63 -11 15 -24 24 -30 21 -6 -4 -8 -2 -4 4 9 15 -55
61 -110 78 -60 18 -116 17 -176 -3z m-13 -82 c-11 -22 -23 -31 -40 -31 -14 0
-25 4 -25 9 0 9 73 61 78 56 2 -2 -4 -17 -13 -34z m85 4 c0 -31 -3 -35 -25
-35 -14 0 -25 3 -25 6 0 8 40 64 46 64 2 0 4 -16 4 -35z m73 6 c22 -38 22 -43
-5 -39 -18 2 -24 11 -26 36 -4 40 8 41 31 3z m89 15 c6 4 8 3 5 -3 -4 -6 0
-16 8 -23 22 -18 18 -30 -8 -30 -17 0 -28 10 -40 35 -17 35 -17 36 3 25 11 -6
26 -8 32 -4z m-282 -120 c0 -45 -10 -56 -52 -56 -36 0 -39 2 -33 23 4 12 9 30
11 40 4 12 16 17 40 17 29 0 34 -3 34 -24z m120 -16 l0 -40 -40 0 c-36 0 -40
3 -40 24 0 44 10 56 46 56 33 0 34 -1 34 -40z m114 28 c3 -7 7 -25 10 -40 6
-27 5 -28 -39 -28 l-45 0 0 40 c0 39 1 40 35 40 20 0 37 -6 39 -12z m130 -10
c13 -48 8 -56 -36 -59 l-43 -4 -2 43 -2 42 38 0 c32 0 40 -4 45 -22z m13 -90
c-3 -8 -6 -5 -6 6 -1 11 2 17 5 13 3 -3 4 -12 1 -19z m-60 6 c-3 -3 -12 -4
-19 -1 -8 3 -5 6 6 6 11 1 17 -2 13 -5z m53 -43 c-1 -48 -12 -61 -51 -61 l-38
0 2 43 2 42 43 -4 c31 -2 42 -7 42 -20z m-376 3 c3 -9 6 -27 6 -40 0 -21 -5
-24 -34 -24 -27 0 -36 5 -41 23 -18 60 -19 57 23 57 27 0 42 -5 46 -16z m126
-24 c0 -39 -1 -40 -34 -40 -36 0 -46 12 -46 56 0 21 4 24 40 24 l40 0 0 -40z
m124 8 c-4 -18 -7 -38 -7 -43 0 -6 -17 -9 -39 -7 -37 4 -38 5 -38 43 l0 39 46
0 46 0 -8 -32z m36 8 c0 -2 -8 -10 -17 -17 -16 -13 -17 -12 -4 4 13 16 21 21
21 13z m-245 -126 c22 -42 19 -43 -25 -14 -46 31 -51 44 -15 44 17 0 29 -9 40
-30z m85 -7 l-1 -38 -24 30 c-31 38 -31 45 0 45 22 0 25 -4 25 -37z m90 31 c0
-12 -34 -64 -42 -64 -10 0 -11 54 -1 63 8 9 43 9 43 1z m100 -3 c0 -5 -7 -14
-15 -21 -8 -7 -12 -17 -8 -23 3 -6 1 -7 -5 -3 -6 4 -21 2 -32 -4 -20 -11 -20
-10 -3 25 12 25 23 35 40 35 13 0 23 -4 23 -9z"/>
<path d="M767 1235 c-16 -34 -18 -35 -78 -35 -46 0 -67 5 -86 20 -14 11 -34
20 -44 20 -25 0 -59 -35 -59 -60 0 -27 35 -60 63 -60 13 0 32 9 42 20 15 17
31 20 94 20 l76 0 19 35 c19 34 20 35 82 35 61 0 63 -1 84 -35 l22 -36 135 3
c128 3 136 4 151 26 l14 22 -140 0 -141 0 -21 30 c-21 29 -23 30 -109 30 l-87
0 -17 -35z m-184 -49 c7 -18 -1 -26 -25 -26 -11 0 -18 7 -18 20 0 23 35 28 43
6z"/>
<path d="M796 1108 c-21 -30 -20 -54 4 -78 25 -25 55 -25 80 0 17 17 36 20
177 22 141 3 158 5 161 21 3 16 -10 17 -156 17 -146 0 -160 2 -177 20 -24 27
-70 26 -89 -2z m64 -39 c0 -12 -7 -19 -20 -19 -22 0 -29 35 -7 43 18 6 27 -2
27 -24z"/>
<path d="M1791 1074 c0 -11 3 -14 6 -6 3 7 2 16 -1 19 -3 4 -6 -2 -5 -13z"/>
<path d="M1803 1005 c0 -22 2 -30 4 -17 2 12 2 30 0 40 -3 9 -5 -1 -4 -23z"/>
<path d="M857 945 c-23 -32 -84 -35 -110 -5 -23 27 -71 26 -91 -2 -23 -32 -20
-54 11 -77 28 -23 59 -20 79 5 7 9 31 14 64 14 44 0 55 4 72 25 19 25 21 25
179 25 87 0 159 2 159 4 0 2 -3 11 -6 20 -5 14 -30 16 -173 16 -165 -1 -166
-1 -184 -25z m-140 -26 c14 -14 6 -39 -12 -39 -18 0 -28 17 -21 35 6 18 18 19
33 4z"/>
<path d="M1791 934 c0 -11 3 -14 6 -6 3 7 2 16 -1 19 -3 4 -6 -2 -5 -13z"/>
<path d="M927 872 c-25 -27 -21 -58 10 -81 28 -23 59 -20 79 5 9 11 41 14 133
14 66 0 121 3 121 8 0 4 -7 15 -14 25 -11 14 -30 17 -120 17 -82 0 -111 4
-122 15 -21 21 -67 19 -87 -3z m61 -40 c2 -14 -2 -22 -12 -22 -19 0 -29 17
-22 36 8 22 30 12 34 -14z"/>
<path d="M1811 696 c-25 -26 -29 -36 -19 -41 7 -5 10 -4 5 0 -4 5 7 24 25 42
17 18 30 33 27 33 -3 0 -20 -15 -38 -34z"/>
<path d="M1230 639 c93 -80 248 -122 372 -101 74 13 179 54 199 79 9 11 9 12
-3 8 -10 -4 -17 1 -21 15 -5 18 -8 19 -31 9 -14 -7 -23 -16 -19 -22 3 -6 2 -7
-3 -4 -5 3 -34 -3 -64 -13 -102 -36 -239 -21 -336 36 -27 16 -56 24 -85 24
l-44 -1 35 -30z m535 1 c-3 -5 -12 -10 -18 -10 -7 0 -6 4 3 10 19 12 23 12 15
0z"/>
<path d="M1825 649 c-11 -17 1 -21 15 -4 8 9 8 15 2 15 -6 0 -14 -5 -17 -11z"/>
</g>
</svg>
